<?xml version="1.0" encoding="UTF-8"?>
<svg viewBox="0 0 47 36" xmlns="http://www.w3.org/2000/svg" xmlns:xlink="http://www.w3.org/1999/xlink">
<defs>
<path id="a" d="M261.158 3573.703h-21.974v-.099c-.48.06-.968.1-1.465.1-6.472 0-11.719-5.227-11.719-11.674 0-4.347 2.391-8.132 5.93-10.141.702-7.408 6.958-13.206 14.579-13.206 7.094 0 13.008 5.023 14.358 11.694.098-.003.192-.02.291-.02 6.473 0 11.72 5.226 11.72 11.673s-5.247 11.673-11.72 11.673zm0-17.51h-.294s-1.423.254-2.83 0h-2.736v-2.918c0-4.835-3.935-8.755-8.789-8.755-4.854 0-8.79 3.92-8.79 8.755v2.919s-1.372.028-2.93.823l-.907.636c-.2.172-.382.361-.557.559 0 0-.054.018-.365.455a5.727 5.727 0 0 0-1.1 3.363c0 2.717 1.872 5.186 4.394 5.837h24.904c3.236 0 5.86-2.613 5.86-5.837 0-3.223-2.624-5.836-5.86-5.836z"/>
</defs>
<g transform="translate(-226 -3538)">
<use fill="#fffff8" xlink:href="#a"/>
<use fill="#f9812b" xlink:href="#a"/>
</g>
</svg>
