<?xml version="1.0" encoding="UTF-8"?>
<svg viewBox="0 0 48 44" xmlns="http://www.w3.org/2000/svg" xmlns:xlink="http://www.w3.org/1999/xlink">
<defs>
<path id="a" d="M763.63 3581h-20.51c-3.236 0-5.86-2.614-5.86-5.837v-32.102c0-3.224 2.624-5.837 5.86-5.837h11.72l4.883 5.837 3.906 4.67 5.86 7.003v20.429c0 3.223-2.623 5.836-5.86 5.836zm-5.86-23.347c-3.237 0-5.86-2.614-5.86-5.837v-8.755h-5.86a2.924 2.924 0 0 0-2.93 2.918v26.266a2.924 2.924 0 0 0 2.93 2.918h14.65a2.924 2.924 0 0 0 2.93-2.918v-14.592zm17.579-16.051c0-2.418 1.967-4.378 4.394-4.378 2.428 0 4.395 1.96 4.395 4.378v4.377h-8.79zm4.394 39.397l-4.394-10.213v-18.97h8.79v18.97z"/>
</defs>
<g transform="translate(-737 -3537)">
<use fill="#fffff8" xlink:href="#a"/>
<use fill="#f9812b" xlink:href="#a"/>
</g>
</svg>
