<svg xmlns="http://www.w3.org/2000/svg" xmlns:xlink="http://www.w3.org/1999/xlink" width="48" height="48" viewBox="0 0 48 48"><defs><path id="l34ja" d="M1296.864 3563.49h-14.65v14.591c0 2.418-1.967 4.378-4.394 4.378-2.428 0-4.395-1.96-4.395-4.378v-14.591h-14.65c-2.427 0-4.394-1.96-4.394-4.378s1.967-4.378 4.394-4.378h14.65v-14.592c0-2.417 1.967-4.377 4.395-4.377 2.427 0 4.394 1.96 4.394 4.377v14.592h14.65c2.427 0 4.394 1.96 4.394 4.378 0 2.417-1.967 4.378-4.394 4.378z"/></defs><g><g transform="translate(-1254 -3535)"><use fill="#fffff8" xlink:href="#l34ja"/><use fill="#f9812b" xlink:href="#l34ja"/></g></g></svg>