<svg xmlns="http://www.w3.org/2000/svg" xmlns:xlink="http://www.w3.org/1999/xlink" width="48" height="48" viewBox="0 0 48 48"><defs><path id="7u19a" d="M274.343 3270.194v5.836h-6.116a17.428 17.428 0 0 1-3.005 7.217l4.045 4.03-4.143 4.127-4.046-4.03a17.568 17.568 0 0 1-7.244 2.993v6.092h-5.86v-6.092a17.566 17.566 0 0 1-7.266-3.009l-4.748 4.73-4.107-4.091 4.748-4.729a17.433 17.433 0 0 1-3.02-7.238h-6.116v-5.836h6.116a17.43 17.43 0 0 1 3.02-7.238l-4.748-4.729 4.107-4.09 4.748 4.728a17.575 17.575 0 0 1 7.266-3.008v-6.092h5.86v6.092c2.674.452 5.144 1.5 7.265 3.008l4.748-4.729 4.107 4.091-4.748 4.73a17.427 17.427 0 0 1 3.02 7.237zm-23.44-8.755c-6.472 0-11.719 5.226-11.719 11.673s5.247 11.674 11.72 11.674c6.472 0 11.72-5.227 11.72-11.674 0-6.447-5.248-11.673-11.72-11.673zm0 14.591a2.924 2.924 0 0 1-2.93-2.918 2.924 2.924 0 0 1 2.93-2.918 2.924 2.924 0 0 1 2.93 2.918 2.924 2.924 0 0 1-2.93 2.918z"/></defs><g><g transform="translate(-227 -3249)"><use fill="#fffff8" xlink:href="#7u19a"/><use fill="#f9812b" xlink:href="#7u19a"/></g></g></svg>