<svg xmlns="http://www.w3.org/2000/svg" viewBox="0 0 512 512"><g fill="#04b386"><path d="M494.48 138.56L364.04 3.02c-1.857-1.928-4.42-3.018-7.095-3.018h-194.4c-21.757 0-39.458 17.694-39.458 39.442v137.8H44.3c-16.278 0-29.52 13.24-29.52 29.513v147.74C14.77 370.76 28.012 384 44.3 384h78.787v88.627c0 21.7 17.7 39.373 39.458 39.373h295.24c21.757 0 39.458-17.653 39.458-39.35V145.4a9.85 9.85 0 0 0-2.752-6.828zM359.4 26.58l107.08 111.26H359.4V26.58zM44.3 364.3c-5.42 0-9.828-4.405-9.828-9.82V206.75a9.84 9.84 0 0 1 9.828-9.821h265.88a9.84 9.84 0 0 1 9.828 9.821V354.5a9.84 9.84 0 0 1-9.828 9.82H44.3zm433.25 108.34c0 10.84-8.867 19.66-19.766 19.66h-295.24c-10.9 0-19.766-8.828-19.766-19.68V384h167.4c16.278 0 29.52-13.24 29.52-29.512V206.75c0-16.274-13.243-29.513-29.52-29.513h-167.4v-137.8c0-10.9 8.867-19.75 19.766-19.75h177.16v128a9.85 9.85 0 0 0 9.846 9.846h128v315.1zM132.48 249.9c-3.27-4.25-7.327-7-12.173-8.28-3.154-.846-9.923-1.27-20.308-1.27H72.595v84.577h17.077v-31.904h11.135c7.73 0 13.635-.404 17.712-1.212 3-.654 5.952-2 8.856-4s5.298-4.798 7.183-8.336 2.827-7.904 2.827-13.096c-.001-6.73-1.636-12.22-4.905-16.47zm-14.625 23.28c-1.288 1.885-3.067 3.27-5.337 4.154s-6.77 1.327-13.5 1.327h-9.346v-24h8.25c6.154 0 10.25.192 12.288.577 2.77.5 5.058 1.75 6.865 3.75s2.712 4.54 2.712 7.615c.001 2.5-.644 4.692-1.932 6.577zm101.625-9.73c-1.846-5.404-4.54-9.97-8.077-13.702s-7.8-6.327-12.75-7.8c-3.692-1.077-9.058-1.615-16.096-1.615h-31.212V324.9h32.135c6.308 0 11.346-.596 15.115-1.8 5.04-1.615 9.04-3.865 12-6.75 3.923-3.808 6.942-8.788 9.058-14.942 1.73-5.04 2.596-11.04 2.596-18 0-7.923-.923-14.586-2.77-20zm-16.616 34.73c-1.154 3.8-2.644 6.5-4.47 8.163s-4.125 2.827-6.894 3.52c-2.115.54-5.558.808-10.327.808h-12.75v-56.02h7.673c6.96 0 11.635.27 14.02.808 3.192.692 5.827 2.02 7.904 3.98s3.692 4.692 4.846 8.192 1.73 8.52 1.73 15.058-.577 11.7-1.73 15.5zm91.966-43.53v-14.3h-57.98v84.57h17.07v-35.94h35.3v-14.3h-35.3v-20.02z"/></g></svg>