<svg xmlns="http://www.w3.org/2000/svg" width="512" height="512" viewBox="0 0 465.2 465.2"><g fill="#04b386"><path d="M279.6 423.7a192.46 192.46 0 0 1-11.629 2.52c-10.148 1.887-16.857 11.647-14.98 21.804a18.65 18.65 0 0 0 7.618 11.876 18.64 18.64 0 0 0 14.175 3.099c4.623-.858 9.282-1.867 13.854-3.008a18.7 18.7 0 1 0-9.038-36.292zm138.3-250.65a18.53 18.53 0 0 0 6.97 9.398 18.71 18.71 0 0 0 28.537-21.155c-1.478-4.468-3.118-8.95-4.865-13.314a18.69 18.69 0 0 0-24.3-10.423c-9.585 3.834-14.256 14.715-10.417 24.308 1.468 3.668 2.843 7.433 4.084 11.187zM340.36 397a195.86 195.86 0 0 1-10.134 6.261c-8.95 5.162-12.014 16.6-6.854 25.546a18.65 18.65 0 0 0 5.416 5.942c5.77 4.06 13.604 4.667 20.127.9a233.05 233.05 0 0 0 12.062-7.452c8.614-5.7 10.985-17.294 5.3-25.912s-17.3-11-25.908-5.294zm124.66-171.72c-.407-10.322-9.1-18.356-19.426-17.953a18.71 18.71 0 0 0-17.947 19.422c.155 3.945.195 7.95.104 11.9-.145 6.473 3.02 12.243 7.94 15.7 2.93 2.064 6.488 3.313 10.345 3.4 10.322.23 18.876-7.958 19.105-18.285a232.17 232.17 0 0 0-.122-14.186zm-50.18 122.54c-8.277-6.2-19.987-4.524-26.186 3.738a194.69 194.69 0 0 1-7.434 9.298c-6.7 7.86-5.745 19.666 2.115 26.36a18.3 18.3 0 0 0 1.371 1.057c7.814 5.5 18.674 4.243 24.992-3.17a237.47 237.47 0 0 0 8.874-11.102c6.2-8.262 4.522-19.98-3.732-26.18zm27.48-67.62c-9.855-3.1-20.35 2.396-23.438 12.25a198.06 198.06 0 0 1-3.906 11.253c-3.105 8.156-.13 17.13 6.7 21.94a19.05 19.05 0 0 0 4.126 2.2c9.65 3.682 20.454-1.16 24.132-10.812a240.35 240.35 0 0 0 4.646-13.382 18.71 18.71 0 0 0-12.25-23.439zM198 426.4a193.08 193.08 0 0 1-47.968-15.244c-.18-.094-.34-.2-.53-.287a203.93 203.93 0 0 1-10.63-5.382c-.012-.014-.034-.023-.053-.03a199.49 199.49 0 0 1-18.606-11.628C32.24 331.86 11.093 209.87 73.063 121.9c13.476-19.122 29.784-35.075 47.965-47.72l.67-.468c64.067-44.144 151.06-47.12 219.1-1.757l-14.6 21.1c-4.062 5.876-1.563 10.158 5.548 9.518l63.467-5.682c7.12-.64 11.378-6.8 9.463-13.675L387.612 21.82c-1.908-6.884-6.793-7.708-10.86-1.833l-14.645 21.16C312.183 7.634 252.307-5.145 192.867 5.16c-5.986 1.036-11.888 2.304-17.7 3.78l-.117.02a9.17 9.17 0 0 0-.672.2c-51.25 13.16-95.965 43.052-127.87 85.7-.27.32-.546.63-.8.978l-3.145 4.353a228.83 228.83 0 0 0-4.938 7.308c-.2.296-.35.597-.525.896-26.33 40.8-39.03 87.97-36.852 136 .005.158-.004.317 0 .48a227.87 227.87 0 0 0 1.088 14.129c.027.302.094.588.145.9.522 4.708 1.177 9.427 1.998 14.145 8.344 48.138 31.052 91.455 65.08 125.16l.24.247c.028.03.06.047.086.076C78.02 408.52 87.963 416.86 98.67 424.4c28.02 19.744 59.22 32.795 92.73 38.808 10.167 1.827 19.88-4.94 21.703-15.103 1.823-10.17-4.94-19.9-15.103-21.7zm23.12-343.202a15.14 15.14 0 0 0-15.137 15.131v150.75l137.87 71.27a15.04 15.04 0 0 0 6.933 1.69c5.476 0 10.765-2.982 13.454-8.185 3.835-7.426.933-16.55-6.493-20.384l-121.5-62.818V98.333c-.001-8.35-6.767-15.13-15.12-15.13z"/></g></svg>