<svg xmlns="http://www.w3.org/2000/svg" viewBox="0 0 512 512"><path d="M350.06 495.43H161.93c-9.446 0-17.102-7.656-17.102-17.102v-239.43c0-9.446 7.656-17.102 17.102-17.102h188.12c9.446 0 17.102 7.656 17.102 17.102v239.43c.001 9.446-7.656 17.102-17.1 17.102z" fill="#fff"/><path d="M281.65 290.2l25.653-17.102 25.653 17.102v-68.41c0-4.722-3.83-8.55-8.55-8.55H290.2c-4.722 0-8.55 3.83-8.55 8.55v68.41z" fill="#FFC850"/><path d="M25.12 290.2c-9.445 0-17.102 7.658-17.102 17.102v102.6c0 9.446 7.658 17.102 17.102 17.102H42.22v-136.82H25.12z" fill="#92E0C0"/><path d="M76.426 444.12H59.324c-9.446 0-17.102-7.656-17.102-17.102v-136.82c0-9.446 7.656-17.102 17.102-17.102h17.102c9.446 0 17.102 7.656 17.102 17.102v136.82c0 9.445-7.656 17.102-17.102 17.102z" fill="#ABFFDB"/><path d="M486.88 290.2h-17.102v136.82h17.102c9.445 0 17.102-7.658 17.102-17.102v-102.6c0-9.446-7.657-17.102-17.102-17.102z" fill="#92E0C0"/><path d="M435.57 273.1h17.102c9.446 0 17.102 7.656 17.102 17.102v136.82c0 9.446-7.656 17.102-17.102 17.102H435.57c-9.446 0-17.102-7.656-17.102-17.102v-136.82c0-9.446 7.656-17.103 17.102-17.103z" fill="#ABFFDB"/><path d="M290.2 213.24c-4.722 0-8.55 3.83-8.55 8.55v68.41l25.653-17.102V213.24H290.2z" fill="#FEA82F"/><g fill="#474D54"><path d="M486.88 282.2h-9.086v-51.84c0-122.3-99.496-221.8-221.8-221.8s-221.8 99.497-221.8 221.8v51.84h-9.086c-13.85 0-25.12 11.268-25.12 25.12v102.6c0 13.85 11.268 25.12 25.12 25.12h10.405c3.354 9.93 12.752 17.102 23.8 17.102h17.102c13.85 0 25.12-11.268 25.12-25.12V290.2c0-13.85-11.268-25.12-25.12-25.12H59.313a24.99 24.99 0 0 0-9.086 1.707V230.34c0-113.46 92.304-205.76 205.76-205.76s205.76 92.304 205.76 205.76v36.446c-2.82-1.098-5.882-1.707-9.086-1.707h-17.1c-13.85 0-25.12 11.268-25.12 25.12v136.82c0 13.85 11.268 25.12 25.12 25.12h17.102c11.048 0 20.446-7.172 23.8-17.102h10.405c13.85 0 25.12-11.268 25.12-25.12v-102.6c0-13.85-11.268-25.12-25.12-25.12zM16.03 409.92V307.3a9.1 9.1 0 0 1 9.086-9.086h9.086v120.78h-9.086a9.1 9.1 0 0 1-9.086-9.085zm43.3-128.8h17.102a9.1 9.1 0 0 1 9.086 9.086v136.82a9.1 9.1 0 0 1-9.086 9.086H59.32a9.1 9.1 0 0 1-9.086-9.086v-136.82a9.1 9.1 0 0 1 9.086-9.086zm393.35 155h-17.1a9.1 9.1 0 0 1-9.086-9.086v-136.82a9.1 9.1 0 0 1 9.086-9.086h17.102a9.1 9.1 0 0 1 9.086 9.086v136.82a9.1 9.1 0 0 1-9.086 9.086zm43.3-26.188a9.1 9.1 0 0 1-9.086 9.086H477.8v-120.8h9.086a9.1 9.1 0 0 1 9.086 9.086v102.6zM350.06 213.78h-11.165c-2.83-5.093-8.26-8.55-14.5-8.55H290.2c-6.228 0-11.66 3.458-14.5 8.55H161.93c-13.85 0-25.12 11.268-25.12 25.12v239.43c0 13.85 11.268 25.12 25.12 25.12h188.12c13.85 0 25.12-11.268 25.12-25.12V238.9c.001-13.85-11.268-25.12-25.118-25.12zm-60.393 8.016c0-.294.24-.534.534-.534h34.205c.295 0 .534.24.534.534v53.43l-13.2-8.794a8.01 8.01 0 0 0-8.894 0l-13.2 8.794v-53.43zm69.478 256.54a9.1 9.1 0 0 1-9.086 9.086H161.94a9.1 9.1 0 0 1-9.086-9.086v-239.43a9.1 9.1 0 0 1 9.086-9.086h111.7v60.392c0 2.957 1.627 5.674 4.234 7.068a8.02 8.02 0 0 0 8.23-.398l21.207-14.138 21.207 14.138c1.34.895 2.892 1.347 4.448 1.347 1.297 0 2.597-.314 3.783-.95a8.02 8.02 0 0 0 4.234-7.068V229.82h9.086a9.1 9.1 0 0 1 9.086 9.086l-.002 239.43z"/></g><g fill="#FFC850"><path d="M179.04 247.98a8.02 8.02 0 0 0-8.017 8.017v205.23a8.02 8.02 0 0 0 8.017 8.017 8.02 8.02 0 0 0 8.017-8.017v-205.23a8.02 8.02 0 0 0-8.017-8.017zm68.4 101.55h51.307a8.02 8.02 0 0 0 8.017-8.017 8.02 8.02 0 0 0-8.017-8.017H247.45a8.02 8.02 0 0 0-8.017 8.017 8.02 8.02 0 0 0 8.017 8.017zm68.42 18.17h-85.5a8.02 8.02 0 0 0-8.017 8.017 8.02 8.02 0 0 0 8.017 8.017h85.5a8.02 8.02 0 0 0 8.017-8.017 8.02 8.02 0 0 0-8.017-8.017z"/></g></svg>