<svg xmlns="http://www.w3.org/2000/svg" height="641" viewBox="-56 0 480 480" width="641"><path d="M24 8h320c8.836 0 16 7.164 16 16v432c0 8.836-7.164 16-16 16H24c-8.836 0-16-7.164-16-16V24c0-8.836 7.164-16 16-16zm0 0" fill="#aabece"/><path d="M24 8h320c8.836 0 16 7.164 16 16v32H8V24c0-8.836 7.164-16 16-16zm0 0" fill="#5a6470"/><path d="M128 136h112c22.1 0 40 17.9 40 40v80c0 22.1-17.9 40-40 40H128c-22.1 0-40-17.9-40-40v-80c0-22.1 17.9-40 40-40zm0 0" fill="#fff"/><path d="M8 376h352v80c0 8.836-7.164 16-16 16H24c-8.836 0-16-7.164-16-16zm0 0" fill="#5a6470"/><path d="M208 424c0 13.254-10.746 24-24 24s-24-10.746-24-24 10.746-24 24-24 24 10.746 24 24zm0 0" fill="#cfdfe8"/><path d="M217.602 204c-2.145.004-4.277.31-6.336.902a24.5 24.5 0 0 0-23.016-20.914c-11.68-.586-22.145 7.172-24.984 18.516A24.62 24.62 0 0 0 152.434 200c-13.258 0-24 10.746-24 24s10.742 24 24 24h65.168c12.148 0 22-9.852 22-22s-9.852-22-22-22zm0 0" fill="#36afad"/><g fill="#fff"><path d="M40 120a8 8 0 0 1-8-8V88a8 8 0 0 1 8-8h32a8 8 0 1 1 0 16H48v16a8 8 0 0 1-8 8zm288 232h-32a8 8 0 1 1 0-16h24v-16a8 8 0 1 1 16 0v24a8 8 0 0 1-8 8zm0-56a8 8 0 0 1-8-8v-24a8 8 0 1 1 16 0v24a8 8 0 0 1-8 8zM40 176a8 8 0 0 1-8-8v-24a8 8 0 1 1 16 0v24a8 8 0 0 1-8 8zm0 0"/></g><path d="M344 480c13.254 0 24-10.746 24-24V24c0-13.254-10.746-24-24-24H24C10.746 0 0 10.746 0 24v432c0 13.254 10.746 24 24 24zM16 24a8 8 0 0 1 8-8h320a8 8 0 0 1 8 8v24H16zm0 40h336v304H16zm0 392v-72h336v72a8 8 0 0 1-8 8H24a8 8 0 0 1-8-8zm168-8c13.254 0 24-10.746 24-24s-10.746-24-24-24-24 10.746-24 24 10.746 24 24 24zm0-32a8 8 0 1 1 0 16 8 8 0 1 1 0-16zm33.602-220h-.488c-4.812-11.484-15.746-19.227-28.176-19.957s-24.195 5.688-30.312 16.53c-12.02-2.496-24.4 2.094-31.902 11.813a32.03 32.03 0 0 0-3.3 33.86A32.04 32.04 0 0 0 152.441 256h65.16c16.566 0 30-13.43 30-30s-13.434-30-30-30zm0 44h-65.16a16 16 0 1 1 0-32c2.543-.004 5.05.578 7.336 1.703 2.18 1.066 4.727 1.082 6.922.047s3.8-3.012 4.363-5.375a16.51 16.51 0 0 1 16.8-12.348 16.5 16.5 0 0 1 15.484 13.949 8.01 8.01 0 0 0 3.547 5.652 8.02 8.02 0 0 0 6.598.996 14.39 14.39 0 0 1 12.559 2.121 14.4 14.4 0 0 1 5.96 11.254c-.12 7.836-6.562 14.098-14.398 14zM288 176c-.027-26.5-21.5-47.973-48-48H128c-26.5.027-47.973 21.5-48 48v80c.027 26.5 21.5 47.973 48 48h112c26.5-.027 47.973-21.5 48-48zm-16 80c0 17.672-14.328 32-32 32H128c-17.672 0-32-14.328-32-32v-80c0-17.672 14.328-32 32-32h112c17.672 0 32 14.328 32 32zM72 80H40a8 8 0 0 0-8 8v24a8 8 0 1 0 16 0V96h24a8 8 0 1 0 0-16zm256 232a8 8 0 0 0-8 8v16h-24a8 8 0 1 0 0 16h32a8 8 0 0 0 8-8v-24a8 8 0 0 0-8-8zm0-56a8 8 0 0 0-8 8v24a8 8 0 1 0 16 0v-24a8 8 0 0 0-8-8zM40 136a8 8 0 0 0-8 8v24a8 8 0 1 0 16 0v-24a8 8 0 0 0-8-8zm0 0"/></svg>