<svg xmlns="http://www.w3.org/2000/svg" width="683" height="683" viewBox="-2 0 512 512.001"><path d="M330.54 256.4v-74.63h26.66l2.078 13.266h57.38v-66.492h-231.16v66.492h57.79l1.664-13.266h26.66v180.95h58.934v-30.746" fill="#b6baf2"/><path d="M184.66 304.48v-44.383h15.855l1.234 7.887h34.125V228.44H98.394v39.543h34.37l.988-7.887h15.855v107.6h35.05z" fill="#5f69e3"/><g fill="#e3e3e3"><path d="M9.652 10.078H59.6v49.938H9.652zm0 441.902H59.6v49.938H9.652zM497.77 60.016h-49.938V10.078h49.938zm0 437.084h-49.938v-49.94h49.938z"/></g><path d="M236.3 218.36H98.82a10.08 10.08 0 0 0-10.078 10.078v39.543a10.08 10.08 0 0 0 10.078 10.078h34.367c2.6 0 4.973-.98 6.77-2.6v92.258a10.08 10.08 0 0 0 10.078 10.078h35.047a10.08 10.08 0 0 0 10.078-10.078V275.22a10.04 10.04 0 0 0 7.012 2.84h34.125a10.08 10.08 0 0 0 10.078-10.078V228.44a10.08 10.08 0 0 0-10.078-10.078zm-10.074 39.547H210.78a10.08 10.08 0 0 0-9.84-7.891H185.1a10.08 10.08 0 0 0-10.078 10.078v97.535h-14.898v-97.535a10.08 10.08 0 0 0-10.074-10.078h-15.855a10.08 10.08 0 0 0-9.84 7.891h-15.44v-19.4h117.32zM427.16 195.04v-66.492a10.08 10.08 0 0 0-10.078-10.078h-231.16a10.08 10.08 0 0 0-10.078 10.078v66.492a10.08 10.08 0 0 0 10.078 10.078h57.793c5.078 0 9.363-3.78 9.996-8.824l.56-4.44h7.7v170.87a10.08 10.08 0 0 0 10.078 10.078h58.934c5.563 0 10.078-4.516 10.078-10.078v-30.746c0-5.566-4.516-10.078-10.078-10.078a10.08 10.08 0 0 0-10.078 10.078v20.668h-38.78v-170.87a10.08 10.08 0 0 0-10.074-10.078h-26.66a10.08 10.08 0 0 0-10 8.824l-.56 4.44H196v-46.336h211v46.336h-38.676l-.746-4.746a10.08 10.08 0 0 0-9.953-8.519h-26.66a10.08 10.08 0 0 0-10.078 10.078v74.63a10.08 10.08 0 0 0 10.078 10.074 10.08 10.08 0 0 0 10.078-10.074v-64.55H349l.742 4.746a10.08 10.08 0 0 0 9.957 8.519h57.38a10.08 10.08 0 0 0 10.078-10.078zm-99.32 89.42l-.348.082a10.08 10.08 0 0 0-7.496 12.121c1.098 4.64 5.234 7.766 9.8 7.766.766 0 1.543-.086 2.324-.273l.352-.082a10.08 10.08 0 0 0 7.492-12.121 10.08 10.08 0 0 0-12.125-7.492zM10.078 70.094h14.9v30.22c0 5.566 4.516 10.078 10.078 10.078a10.08 10.08 0 0 0 10.078-10.078v-30.22h14.9a10.08 10.08 0 0 0 10.078-10.078v-14.9h35.426a10.08 10.08 0 0 0 10.078-10.078 10.08 10.08 0 0 0-10.078-10.078H70.092v-14.9A10.08 10.08 0 0 0 60.016 0H10.078A10.08 10.08 0 0 0 0 10.078v49.938a10.08 10.08 0 0 0 10.078 10.078zm10.078-49.938H49.94v29.78H20.156zM105.52 466.88H70.1V452a10.08 10.08 0 0 0-10.078-10.078h-14.9v-30.22a10.08 10.08 0 0 0-10.078-10.078c-5.562 0-10.078 4.512-10.078 10.078v30.22h-14.9a10.08 10.08 0 0 0-10.09 10.077v49.938a10.08 10.08 0 0 0 10.078 10.078h49.938a10.08 10.08 0 0 0 10.078-10.078v-14.9h35.43a10.08 10.08 0 0 0 10.074-10.078 10.08 10.08 0 0 0-10.074-10.078zm-55.582 24.97H20.153v-29.78h29.785zM498.2 0h-49.94a10.08 10.08 0 0 0-10.074 10.078v14.9h-35.43c-5.562 0-10.078 4.512-10.078 10.078s4.516 10.078 10.078 10.078h35.43v14.9a10.08 10.08 0 0 0 10.074 10.078h14.895v30.22a10.08 10.08 0 0 0 10.078 10.078 10.08 10.08 0 0 0 10.074-10.078v-30.22H498.2a10.08 10.08 0 0 0 10.074-10.078V10.078C508.28 4.512 503.767 0 498.2 0zm-10.078 49.938h-29.785v-29.78h29.785zM498.2 437.08h-14.9v-30.223a10.08 10.08 0 0 0-10.078-10.074 10.08 10.08 0 0 0-10.078 10.074v30.223h-14.9a10.08 10.08 0 0 0-10.078 10.074v14.895h-35.43a10.08 10.08 0 0 0-10.074 10.078 10.08 10.08 0 0 0 10.074 10.074h35.43v14.9a10.08 10.08 0 0 0 10.078 10.078h49.936a10.08 10.08 0 0 0 10.078-10.078v-49.938c0-5.566-4.512-10.074-10.078-10.074zm-10.078 49.938h-29.785v-29.785h29.785zM210.64 466.14h-42.613a10.08 10.08 0 0 0-10.078 10.074c0 5.566 4.516 10.078 10.078 10.078h42.613a10.08 10.08 0 0 0 10.078-10.078 10.08 10.08 0 0 0-10.078-10.074zm114.54 0h-42.613a10.08 10.08 0 0 0-10.078 10.074 10.08 10.08 0 0 0 10.078 10.078h42.613a10.08 10.08 0 0 0 10.078-10.078 10.08 10.08 0 0 0-10.078-10.074zM168.03 46.78h42.613a10.08 10.08 0 0 0 10.078-10.078 10.08 10.08 0 0 0-10.078-10.078H168.03c-5.562 0-10.078 4.512-10.078 10.078s4.516 10.078 10.078 10.078zm114.54 0h42.613a10.08 10.08 0 0 0 10.078-10.078 10.08 10.08 0 0 0-10.078-10.078H282.57a10.08 10.08 0 0 0-10.078 10.078A10.08 10.08 0 0 0 282.57 46.78zm190.66 176.56c5.563 0 10.078-4.512 10.078-10.078V170.65c0-5.566-4.516-10.078-10.078-10.078a10.08 10.08 0 0 0-10.078 10.078v42.613a10.08 10.08 0 0 0 10.078 10.078zM463.15 327.8a10.08 10.08 0 0 0 10.078 10.078c5.566 0 10.078-4.516 10.078-10.078v-42.613c0-5.566-4.516-10.078-10.078-10.078a10.08 10.08 0 0 0-10.078 10.078zM45.125 170.65a10.08 10.08 0 0 0-10.078-10.078c-5.562 0-10.078 4.512-10.078 10.078v42.613c0 5.566 4.516 10.078 10.078 10.078a10.08 10.08 0 0 0 10.078-10.078zM35.047 275.1c-5.562 0-10.078 4.512-10.078 10.078V327.8c0 5.563 4.516 10.078 10.078 10.078s10.078-4.516 10.078-10.078v-42.613a10.08 10.08 0 0 0-10.078-10.078z"/></svg>