<svg xmlns="http://www.w3.org/2000/svg" height="683" viewBox="0 0 512.001 512" width="683"><path d="M10.254 477.996L84.598 384.6s33.902-6.266 81.547-21.762c75.648-24.605 89.98 23.387 89.98 23.387s14.336-47.992 89.984-23.387c47.64 15.496 81.547 21.762 81.547 21.762l74.34 93.406zm0 0" fill="#edf2fa"/><path d="M482.363 453.328l-5.7-6.566s-43.6-8.05-104.844-27.977c-97.262-31.637-115.695 30.07-115.695 30.07s-18.43-61.707-115.69-30.07C79.18 438.71 35.6 446.762 35.6 446.762l-2.137 2.1-23.195 29.145h491.738zm0 0" fill="#ffc66c"/><path d="M167.77 116.98l20 40.523 44.723 6.5-32.36 31.543 7.637 44.54-40-21.027-39.996 21.027 7.637-44.54-32.36-31.543 44.723-6.5zm0 0" fill="#36d28f"/><path d="M282.668 477.996l-12.5 12.5c-7.824 7.824-20.512 7.824-28.336 0l-12.5-12.5L256 451.328zm0 0" fill="#ffc66c"/><path d="M395.965 19.855l-11.426 33.69 21.277 28.516-35.578-.453-20.543 29.047-10.562-33.977-33.973-10.56 29.047-20.543L333.754 10l28.516 21.28zm0 0" fill="#6a80ff"/><path d="M388 467.996a10.08 10.08 0 0 0-7.07 2.93 10.081 10.081 0 0 0-2.93 7.07 10.06 10.06 0 0 0 2.93 7.07 10.08 10.08 0 0 0 7.07 2.93 10.06 10.06 0 0 0 7.066-2.93 10.07 10.07 0 0 0 2.934-7.07 10.07 10.07 0 0 0-10-10zm121.82 3.774l-74.34-93.4a10.01 10.01 0 0 0-6.008-3.602c-.332-.066-33.902-6.355-80.27-21.437-31.066-10.105-56.715-10.043-76.227.2-7.398 3.883-12.87 8.738-16.852 13.402-3.977-4.664-9.45-9.52-16.848-13.402-19.512-10.234-45.156-10.297-76.23-.2-46.367 15.082-79.937 21.37-80.266 21.434a10.01 10.01 0 0 0-6.008 3.605l-74.34 93.4a10 10 0 0 0-1.187 10.57 10.002 10.002 0 0 0 9.008 5.656h213.25c4.28 13.883 17.234 24 32.508 24s28.23-10.117 32.512-24h59.145c5.52 0 10-4.48 10-10s-4.48-10-10-10h-60.86l-19.652-19.656c2.508-5.047 8.648-14.684 21.25-21.293 19.43-10.187 46.453-9.77 80.32 1.246 52.574 17.102 91.824 25.465 102.973 27.7l9.56 12.012h-52.594c-5.52 0-10 4.477-10 10s4.48 10 10 10h73.332c3.84 0 7.34-2.2 9.008-5.656a10 10 0 0 0-1.184-10.57zM90.133 393.7c10.133-2.066 39.88-8.594 79.102-21.352 27.266-8.87 49.293-8.66 63.7.602 8.402 5.402 12.02 12.363 13.184 15.082v30.063a70.88 70.88 0 0 0-12.992-8.75c-24.38-12.8-56.6-12.805-95.797-.062-31.523 10.254-58.457 17.355-76.953 21.793zm-49.578 62.293c11.148-2.227 50.398-10.6 102.973-27.687 33.605-10.934 60.484-11.426 79.887-1.473 12.824 6.578 19.03 16.156 21.6 21.336l-19.832 19.836H30.996zm215.457 36.012a14.03 14.03 0 0 1-13.938-12.598L256 465.473l13.953 13.953a14.03 14.03 0 0 1-13.941 12.57zm118.902-82.72c-39.187-12.746-71.418-12.727-95.793.06a70.867 70.867 0 0 0-12.992 8.75V388c1.254-2.937 5.582-11.238 16.137-16.777 14.355-7.527 35.363-7.14 60.754 1.117 39.223 12.758 68.97 19.285 79.102 21.352l29.75 37.383c-18.48-4.434-45.398-11.53-76.957-21.797zM54.32 339.004a10.01 10.01 0 0 0 9.676 7.496 9.96 9.96 0 0 0 2.512-.324 10 10 0 0 0 7.176-12.187l-54-208.496a10.01 10.01 0 0 0-12.187-7.176c-5.348 1.387-8.56 6.844-7.176 12.188zm391.172 7.172a9.96 9.96 0 0 0 2.512.324 10.01 10.01 0 0 0 9.676-7.496l54-208.5c1.383-5.344-1.828-10.8-7.176-12.187a10 10 0 0 0-12.187 7.176l-54 208.496c-1.383 5.348 1.828 10.805 7.176 12.188zM100.637 32.652c5.523 0 10-4.48 10-10V10c0-5.52-4.477-10-10-10s-10 4.48-10 10v12.652c0 5.52 4.48 10 10 10zm0 60.62a10 10 0 0 0 10-10V70.625a10 10 0 0 0-10-10c-5.52 0-10 4.477-10 10v12.648c0 5.523 4.48 10 10 10zm23.988-36.635h12.648a10 10 0 1 0 0-20h-12.648a10 10 0 1 0 0 20zm-60.62 0h12.648a10 10 0 1 0 0-20h-12.65a10 10 0 1 0 0 20zm301.965 162.85c0-5.52-4.477-10-10-10s-10 4.48-10 10v12.652a10 10 0 1 0 20 0zm-10 50.625a10 10 0 0 0-10 9.996v12.652c0 5.52 4.477 10 10 10s10-4.48 10-10V280.1a10 10 0 0 0-10-9.996zm23.987-23.988c-5.523 0-10 4.48-10 10a10 10 0 0 0 10 10h12.648a10 10 0 0 0 10-10c0-5.52-4.477-10-10-10zm-47.973 0h-12.652c-5.52 0-10 4.48-10 10s4.48 10 10 10h12.652c5.52 0 10-4.477 10-10s-4.48-10-10-10zM101.613 154.1c-3.766.547-6.895 3.184-8.07 6.805s-.195 7.594 2.527 10.25l28.598 27.875-6.754 39.36c-.64 3.75.902 7.543 3.98 9.777a9.955 9.955 0 0 0 5.88 1.9c1.594 0 3.188-.38 4.652-1.148l35.348-18.582 35.344 18.582a9.997 9.997 0 0 0 10.53-.762 10.01 10.01 0 0 0 3.98-9.777l-6.75-39.36 28.594-27.875a9.994 9.994 0 0 0 2.53-10.25 10 10 0 0 0-8.074-6.805l-39.516-5.742-17.676-35.812a10.021 10.021 0 0 0-8.965-5.574 10.01 10.01 0 0 0-8.97 5.574l-17.67 35.824zm55.125 7.82l11.03-22.352 11.035 22.352a9.996 9.996 0 0 0 7.527 5.473l24.67 3.58-17.852 17.402a10.007 10.007 0 0 0-2.875 8.852l4.215 24.57-22.062-11.602a9.995 9.995 0 0 0-9.3 0L141.05 221.8l4.215-24.57a9.994 9.994 0 0 0-2.875-8.852l-17.852-17.402 24.668-3.582a10 10 0 0 0 7.531-5.473zM302.2 75.668l28.957 9.004 9 28.953a9.97 9.97 0 0 0 7.984 6.9 10.11 10.11 0 0 0 1.566.121c3.2 0 6.27-1.55 8.16-4.227l17.508-24.754 30.32.387c3.78.03 7.3-2.07 9.04-5.46a10 10 0 0 0-.898-10.52l-18.137-24.3 9.738-28.72a10 10 0 0 0-12.68-12.68L364.033 20.1l-24.3-18.137a10.01 10.01 0 0 0-10.52-.895 10 10 0 0 0-5.461 9.039l.387 30.32-24.754 17.504c-3.1 2.2-4.7 5.973-4.105 9.73s3.273 6.855 6.9 7.984zm37.793-21.926a10 10 0 0 0 4.223-8.293l-.195-15.316 12.277 9.16a10 10 0 0 0 9.2 1.457l14.504-4.918-4.918 14.504a10.01 10.01 0 0 0 1.457 9.2l9.16 12.277-15.445-.195a10 10 0 0 0-8.164 4.227L353.23 88.34l-4.547-14.625a10 10 0 0 0-6.578-6.582l-14.63-4.547zM243 136.44c5.523 0 10-4.48 10-10v-59a10 10 0 0 0-10-10c-5.52 0-10 4.477-10 10v59c0 5.52 4.477 10 10 10zm0-95.608a10.07 10.07 0 0 0 7.07-2.934 10.07 10.07 0 0 0 2.93-7.066 10.07 10.07 0 0 0-2.93-7.07 10.08 10.08 0 0 0-7.07-2.93 10.06 10.06 0 0 0-7.07 2.93 10.08 10.08 0 0 0-2.93 7.07 10.07 10.07 0 0 0 2.93 7.066 10.08 10.08 0 0 0 7.07 2.934zm0 0"/></svg>