<svg xmlns="http://www.w3.org/2000/svg" width="683" height="683" viewBox="0 0 512 512"><path d="M504.48 167.9c0 88.574-71.8 160.38-160.38 160.38s-160.38-71.8-160.38-160.38S255.52 7.5 344.1 7.5s160.38 71.8 160.38 160.38z" fill="#ada3b2"/><path d="M474.4 167.9c0 71.965-58.34 130.3-130.3 130.3-71.965 0-130.3-58.34-130.3-130.3S272.15 37.6 344.1 37.6s130.3 58.34 130.3 130.3z" fill="#f7f6f7"/><path d="M366.16 276.15c-71.965 0-130.3-58.34-130.3-130.3 0-30.367 10.387-58.305 27.8-80.457-30.355 23.855-49.852 60.906-49.852 102.5 0 71.965 58.34 130.3 130.3 130.3 41.602 0 78.652-19.496 102.5-49.852-22.152 17.414-50.094 27.8-80.457 27.8zm-197.78 44.8l52.12-52.12 22.684 22.68-52.12 52.12z" fill="#dedae0"/><path d="M168.1 304.2L15.73 456.57c-10.96 10.96-10.96 28.73 0 39.69s28.73 10.96 39.69 0L207.78 343.9z" fill="#887dca"/><path d="M191.65 327.77L39.3 480.13c-8.086 8.086-19.875 10.2-29.906 6.356a28.043 28.043 0 0 0 6.355 9.785c10.96 10.96 28.73 10.96 39.69 0l152.36-152.36z" fill="#6a5dbd"/><path d="M416.52 224.03s-40.094-24.06-72.168 0V119.78c32.074-24.06 72.168 0 72.168 0z" fill="#dfebf0"/><g fill="#bfd7e1"><path d="M344.35 119.78v104.25c8.098-6.078 16.71-9.082 25.06-10.184v-104.24c-8.348 1.102-16.96 4.106-25.06 10.18z"/><path d="M272.18 224.03s40.098-24.06 72.172 0V119.78c-32.074-24.06-72.172 0-72.172 0z"/></g><path d="M344.35 119.78c-8.102-6.074-16.71-9.078-25.06-10.18v104.24c8.348 1.102 16.957 4.106 25.06 10.184v-104.25z" fill="#a0c2d2"/><path d="M344.1 0c-92.578 0-167.9 75.316-167.9 167.9 0 37.336 12.258 71.863 32.953 99.777l-32.64 34.336-3.113-3.1a7.514 7.514 0 0 0-10.63 0L10.43 451.254a35.34 35.34 0 0 0-10.422 25.16c0 9.504 3.703 18.44 10.422 25.164 6.938 6.938 16.05 10.402 25.16 10.402s18.227-3.465 25.164-10.402l152.36-152.36a7.512 7.512 0 0 0 0-10.63l-3.266-3.266 32.367-34.094c28.28 21.66 63.6 34.56 101.9 34.56 92.578 0 167.9-75.316 167.9-167.9S436.7.008 344.115.008zm-294 490.95c-8.012 8.012-21.047 8.012-29.06 0s-8.012-21.047 0-29.06L168.1 314.85l29.062 29.06zM199.2 324.7l-12.047-12.043 31.574-33.215a169.685 169.685 0 0 0 11.934 12.117zm144.9-3.934c-84.285 0-152.86-68.574-152.86-152.86s68.574-152.86 152.86-152.86 152.86 68.57 152.86 152.86c0 84.285-68.57 152.86-152.86 152.86zM406.77 45.1a7.522 7.522 0 0 0-10.117 3.273 7.51 7.51 0 0 0 3.273 10.113c41.305 21.125 66.965 63.043 66.965 109.4 0 67.703-55.082 122.8-122.8 122.8s-122.8-55.082-122.8-122.8 55.086-122.8 122.8-122.8c7.77 0 15.547.73 23.1 2.168 4.074.78 8.012-1.898 8.793-5.977.773-4.078-1.902-8.016-5.98-8.793a139.18 139.18 0 0 0-25.922-2.434c-75.996 0-137.82 61.828-137.82 137.82S268.105 305.7 344.1 305.7s137.82-61.828 137.82-137.82c0-52.03-28.797-99.078-75.156-122.8zm-14.3 194.46a7.52 7.52 0 0 0 7.516-7.519v-7.1c7.55 2.566 12.504 5.438 12.684 5.547 4.926 2.94 11.375-.734 11.375-6.453v-104.25a7.51 7.51 0 0 0-3.652-6.445c-1.738-1.043-41.316-24.273-76.035-2.648-34.723-21.625-74.3 1.605-76.04 2.648a7.516 7.516 0 0 0-3.648 6.445v104.25c0 5.727 6.46 9.398 11.383 6.445.36-.215 36.082-21.22 63.793-.434 2.637 1.973 6.383 1.973 9.02 0 11.645-8.73 24.777-10.043 36.086-8.63v10.633a7.52 7.52 0 0 0 7.519 7.52zM279.7 212.154v-87.832c9.398-4.512 35.215-14.48 57.133-.605v87.223c-21.7-9.578-44.07-3.94-57.133 1.215zm72.168-1.215v-87.22c21.824-13.8 47.72-3.863 57.137.62v87.812c-7.902-3.117-19.203-6.4-31.7-6.4-8.172 0-16.86 1.4-25.438 5.195z"/></svg>