<svg xmlns="http://www.w3.org/2000/svg" width="666" height="666" viewBox="-42 0 499 499.888"><path d="M219.75 331.8c26.96-14.797 92.64-56.88 92.64-114.08 0-30.93-25.074-56-56-56a53.185 53.185 0 0 0-48 24 53.185 53.185 0 0 0-48-24c-30.93 0-56 25.07-56 56 0 57.2 65.68 99.28 92.64 114.08 6.957 3.922 11.36 5.922 11.36 5.922s4.398-2 11.36-5.922z" fill="#ff6243"/><path d="M416.4 249.72c-.184-98.875-69.78-184.03-166.64-203.9a8 8 0 0 0-9.445 6.242 8.003 8.003 0 0 0 6.246 9.445c93.86 19.078 159.3 104.4 153.4 200-5.918 95.598-81.38 172.2-176.88 179.57l34.03-55.328a8 8 0 0 0 .535-8.231 7.996 7.996 0 0 0-7.023-4.328 8 8 0 0 0-7.113 4.176l-41.918 68.137c-.105.168-.105.367-.2.543a8.19 8.19 0 0 0-.555 1.504 7.97 7.97 0 0 0-.32 1.602c0 .2-.1.375-.1.574.04.293.102.586.176.87a6.755 6.755 0 0 0 .945 2.977 7.21 7.21 0 0 0 .84 1.242 9 9 0 0 0 1.19 1.117c.238.184.4.44.656.6l68.133 41.9c2.434 1.672 5.6 1.867 8.2.512s4.28-4.05 4.32-7a7.97 7.97 0 0 0-4.137-7.1l-46.738-28.762c104.1-13.027 182.27-101.48 182.4-206.4zM169.88 437.87C76.1 418.655 10.8 333.3 16.8 237.76c5.992-95.543 81.45-172.07 176.9-179.4l-34.035 55.328a8.01 8.01 0 0 0-.535 8.23 7.995 7.995 0 0 0 7.023 4.328 8 8 0 0 0 7.113-4.176l41.922-68.137c.102-.168.102-.367.2-.543.234-.484.418-.988.55-1.504a7.71 7.71 0 0 0 .32-1.602c0-.2.113-.375.113-.574a8.31 8.31 0 0 0-.176-.875 8.58 8.58 0 0 0-.32-1.598 8.07 8.07 0 0 0-.625-1.375 7.54 7.54 0 0 0-.8-1.242 9.23 9.23 0 0 0-1.19-1.12c-.238-.184-.4-.437-.656-.605L144.44 1.006a8 8 0 0 0-10.672 2.805 8 8 0 0 0 2.281 10.793l46.734 28.727C81.704 55.896 4.584 139.818.604 241.6c-3.984 101.8 66.328 191.48 166.12 211.9a8.764 8.764 0 0 0 1.598.16 8 8 0 0 0 7.93-7.199 7.994 7.994 0 0 0-6.328-8.633zm38.52-92.15a8.01 8.01 0 0 0 3.313-.72c.184-.1 4.797-2.187 11.895-6.187 29.105-15.973 96.793-59.75 96.793-121.1a65.97 65.97 0 0 0-41.215-59.219 65.96 65.96 0 0 0-70.785 13.945 63.55 63.55 0 0 0-48-18.727c-35.332.04-63.96 28.668-64 64 0 61.344 67.688 105.12 96.7 121.05 7.2 4.047 11.785 6.145 12 6.234 1.03.47 2.152.715 3.3.72zm-96-128c.027-26.5 21.5-47.973 48-48a45.31 45.31 0 0 1 41.137 20.105 8.303 8.303 0 0 0 6.863 3.63 8.31 8.31 0 0 0 6.863-3.629 45.3 45.3 0 0 1 41.137-20.105c26.496.027 47.973 21.5 48 48 0 54.28-67.738 95.672-88.57 107.1a222.05 222.05 0 0 1-7.43 4c-1.848-.937-4.418-2.3-7.504-4-20.762-11.44-88.496-52.832-88.496-107.1z" fill="#3e3d42"/></svg>