<svg viewBox="0 0 48 48" xmlns="http://www.w3.org/2000/svg" xmlns:xlink="http://www.w3.org/1999/xlink"><defs><path id="a" d="M782.673 3296.459h-41.018a2.924 2.924 0 0 1-2.93-2.919v-40.856a2.924 2.924 0 0 1 2.93-2.919h14.65a2.924 2.924 0 0 1 2.93 2.919 2.924 2.924 0 0 1-2.93 2.917h-11.72v35.022h35.158v-14.593a2.924 2.924 0 0 1 2.93-2.918 2.924 2.924 0 0 1 2.93 2.918v17.51a2.924 2.924 0 0 1-2.93 2.919zm-.689-35.866l-7.25-7.223 1.458-1.453a5.141 5.141 0 0 1 7.25 0 5.093 5.093 0 0 1 0 7.223zm-14.404 14.347c-.896.893-2.042 1.363-3.213 1.457l-11.038 5.561 5.536-11.03a5.054 5.054 0 0 1 1.464-3.21l10.26-10.221 7.252 7.222z"/></defs><g transform="translate(-738 -3249)"><use fill="#fffff8" xlink:href="#a"/><use fill="#f9812b" xlink:href="#a"/></g></svg>