<svg xmlns="http://www.w3.org/2000/svg" xmlns:xlink="http://www.w3.org/1999/xlink" width="48" height="48"><defs><path id="a" d="M1298.329 3296.459h-11.72c-2.427 0-4.395-1.96-4.395-4.377v-11.674c0-2.417 1.968-4.378 4.395-4.378h11.72a4.386 4.386 0 0 1 4.394 4.378v11.674c0 2.417-1.967 4.377-4.394 4.377zm0-14.592c0-.806-.656-1.46-1.465-1.46h-8.79c-.809 0-1.465.654-1.465 1.46v8.756c0 .805.656 1.459 1.465 1.459h8.79c.809 0 1.465-.654 1.465-1.46zm0-11.673h-11.72c-2.427 0-4.395-1.96-4.395-4.378v-11.673c0-2.418 1.968-4.378 4.395-4.378h11.72a4.386 4.386 0 0 1 4.394 4.378v11.673a4.386 4.386 0 0 1-4.394 4.378zm0-14.592c0-.806-.656-1.46-1.465-1.46h-8.79c-.809 0-1.465.654-1.465 1.46v8.755c0 .806.656 1.46 1.465 1.46h8.79c.809 0 1.465-.654 1.465-1.46zm-26.37 40.857h-11.719c-2.427 0-4.394-1.96-4.394-4.377v-11.674a4.386 4.386 0 0 1 4.394-4.378h11.72c2.427 0 4.395 1.96 4.395 4.378v11.674c0 2.417-1.968 4.377-4.395 4.377zm0-14.592c0-.806-.655-1.46-1.464-1.46h-8.79c-.809 0-1.465.654-1.465 1.46v8.756c0 .805.656 1.459 1.465 1.459h8.79c.809 0 1.465-.654 1.465-1.46zm0-11.673h-11.719a4.386 4.386 0 0 1-4.394-4.378v-11.673a4.386 4.386 0 0 1 4.394-4.378h11.72c2.427 0 4.395 1.96 4.395 4.378v11.673c0 2.418-1.968 4.378-4.395 4.378zm0-14.592c0-.806-.655-1.46-1.464-1.46h-8.79c-.809 0-1.465.654-1.465 1.46v8.755c0 .806.656 1.46 1.465 1.46h8.79c.809 0 1.465-.654 1.465-1.46z"/></defs><g transform="translate(-1255 -3249)"><use fill="#fffff8" xlink:href="#a"/><use fill="#f9812b" xlink:href="#a"/></g></svg>