<svg xmlns="http://www.w3.org/2000/svg" xmlns:xlink="http://www.w3.org/1999/xlink" width="48" height="48"><defs><path id="a" d="M1296.864 3563.49h-14.65v14.591a4.386 4.386 0 0 1-4.394 4.378 4.386 4.386 0 0 1-4.395-4.378v-14.591h-14.65c-2.427 0-4.394-1.96-4.394-4.378s1.967-4.378 4.394-4.378h14.65v-14.592c0-2.417 1.967-4.377 4.395-4.377 2.427 0 4.394 1.96 4.394 4.377v14.592h14.65a4.386 4.386 0 0 1 4.394 4.378 4.386 4.386 0 0 1-4.394 4.378z"/></defs><g transform="translate(-1254 -3535)"><use fill="#fffff8" xlink:href="#a"/><use fill="#f9812b" xlink:href="#a"/></g></svg>