<?xml version="1.0" standalone="no"?>
<!DOCTYPE svg PUBLIC "-//W3C//DTD SVG 1.1//EN" "http://www.w3.org/Graphics/SVG/1.1/DTD/svg11.dtd" >
<svg xmlns="http://www.w3.org/2000/svg" xmlns:xlink="http://www.w3.org/1999/xlink" version="1.1">
<metadata>
Created by FontForge 20170731 at Wed Nov 21 16:27:32 2007
 By Aleksey,,,
Copyright (c) 2007 by . All rights reserved.
</metadata>
<defs>
<font id="Velocity" horiz-adv-x="698" >
  <font-face 
    font-family="Velocity"
    font-weight="400"
    font-stretch="normal"
    units-per-em="1000"
    panose-1="0 0 0 0 0 0 0 0 0 0"
    ascent="750"
    descent="-250"
    x-height="700"
    cap-height="860"
    bbox="-278 -267 958 863"
    underline-thickness="50"
    underline-position="-150"
    unicode-range="U+0020-007A"
  />
<missing-glyph horiz-adv-x="500" 
 />
    <glyph glyph-name=".notdef" horiz-adv-x="500" 
 />
    <glyph glyph-name=".null" horiz-adv-x="0" 
 />
    <glyph glyph-name="nonmarkingreturn" horiz-adv-x="500" 
 />
    <glyph glyph-name="space" unicode=" " horiz-adv-x="500" 
 />
    <glyph glyph-name="space" unicode="&#xa0;" horiz-adv-x="500" 
 />
    <glyph glyph-name="A" unicode="A" horiz-adv-x="738" 
d="M700 349v-348h-163v54q-41 -26 -88 -40t-98 -14q-72 0 -136 27.5t-111.5 74.5t-75 111t-27.5 136t27.5 136t75 111.5t111.5 75t136 27.5t136 -27.5t111 -75t74.5 -111.5t27.5 -136v-1zM351 164q38 0 72 14.5t59.5 40t40 59t14.5 72.5t-14.5 73t-40 59.5t-59 40
t-72.5 14.5t-72.5 -14.5t-59 -40t-40 -59.5t-14.5 -73q0 -38 14.5 -72t40 -59.5t59 -40t72.5 -14.5z" />
    <glyph glyph-name="B" unicode="B" horiz-adv-x="708" 
d="M349 698q72 0 135.5 -27t111 -74.5t74.5 -111t27 -135.5t-27 -135.5t-74.5 -111t-111 -75t-135.5 -27.5t-136 27.5t-111 75t-74.5 111t-27.5 135.5v465h163v-171q40 26 87 40t99 14zM349 164q38 0 72 14.5t59.5 40t40 59t14.5 72.5t-14.5 72.5t-40 59t-59.5 40t-72 14.5
q-39 0 -72.5 -14.5t-59 -40t-40 -59t-14.5 -72.5t14.5 -72.5t40 -59t59 -40t72.5 -14.5z" />
    <glyph glyph-name="C" unicode="C" 
d="M694 280q-12 -60 -43 -111.5t-76.5 -89t-102.5 -59t-121 -21.5q-72 0 -136 27.5t-111.5 75t-75 111.5t-27.5 137q0 72 27.5 136t75 111.5t111.5 75t136 27.5q64 0 121 -21.5t102.5 -59t76.5 -88.5t43 -111h-170q-21 51 -67.5 83.5t-105.5 32.5q-39 0 -73 -14.5t-59.5 -40
t-40 -59t-14.5 -72.5t14.5 -73t40 -59.5t59.5 -40t73 -14.5q59 0 105.5 32.5t67.5 84.5h170z" />
    <glyph glyph-name="D" unicode="D" horiz-adv-x="713" 
d="M697 814v-465q0 -72 -27.5 -135.5t-74.5 -110.5t-111 -74.5t-136 -27.5t-135.5 27.5t-110.5 74.5t-74.5 110.5t-27.5 135.5t27.5 136t74.5 111t110.5 74.5t135.5 27.5q52 0 98.5 -14t87.5 -40v170h163zM348 164q39 0 72.5 14.5t59 39.5t40 59t14.5 72q0 39 -14.5 72.5
t-40 59t-59 40t-72.5 14.5q-38 0 -72 -14.5t-59 -40t-39.5 -59t-14.5 -72.5q0 -38 14.5 -72t39.5 -59t59 -39.5t72 -14.5z" />
    <glyph glyph-name="E" unicode="E" 
d="M693 281q-12 -60 -43.5 -111.5t-76.5 -89t-102 -58.5t-121 -21q-73 0 -136.5 27.5t-111 75t-75 111t-27.5 136.5t27.5 136.5t75 111t111 75t136.5 27.5q54 0 103 -15.5t90.5 -43.5t74 -66.5t52.5 -84.5q5 -11 8 -20l-16 -27l-58 -93h-217l86 139q-25 23 -56.5 35.5
t-66.5 12.5q-39 0 -73 -14.5t-59.5 -40t-40 -59.5t-14.5 -73t14.5 -73t40 -59.5t59.5 -40t73 -14.5q59 0 105.5 33t67.5 84h170z" />
    <glyph glyph-name="F" unicode="F" horiz-adv-x="467" 
d="M536 861v-163h-116q-35 0 -68.5 -16t-59.5 -42t-42 -59.5t-16 -68.5v-70h186v-139h-186v-303h-163v303h-70l70 116v93q0 70 28.5 133t76.5 111t111 76.5t133 28.5h116z" />
    <glyph glyph-name="G" unicode="G" horiz-adv-x="741" 
d="M535 698h163v-583q0 -67 -26 -126t-70 -103.5t-103.5 -70t-126.5 -25.5v163q48 0 86.5 25t59.5 65q-38 -20 -80.5 -31.5t-88.5 -11.5q-72 0 -136 27.5t-111 74.5t-74.5 111t-27.5 136q0 68 24 126.5t66 105.5h-67l69 117h257q24 0 47.5 -3.5t44.5 -9.5v-175
q-20 11 -43 18t-49 7q-38 0 -72 -14.5t-59.5 -40t-40.5 -59.5t-15 -72q0 -39 15 -73t40.5 -59.5t59.5 -40t72 -14.5t72 14.5t59.5 40t40 59.5t14.5 73v349z" />
    <glyph glyph-name="H" unicode="H" horiz-adv-x="627" 
d="M303 700q63 0 118 -24t96 -65t65 -96t24 -118v-397h-163v397q0 29 -11 54.5t-30 44.5t-44.5 30t-54.5 11t-54.5 -11t-44.5 -30t-30 -44.5t-11 -54.5v-24v-373h-163v373v24v186v164h-96l70 116h26h163v-198q32 17 67 26t73 9z" />
    <glyph glyph-name="I" unicode="I" horiz-adv-x="258" 
d="M204 0h-163v647h163v-647v0zM204 697h-163v163h163v-163v0z" />
    <glyph glyph-name="J" unicode="J" horiz-adv-x="339" 
d="M267 698h-162v163h162v-163zM105 648v-253v-279q0 -35 -12.5 -65t-34 -51.5t-51.5 -34t-65 -12.5h-23l-93 -163h116q70 0 129.5 25t103 68.5t68 103t24.5 129.5v532h-162z" />
    <glyph glyph-name="K" unicode="K" horiz-adv-x="626" 
d="M407 418q42 -27 76.5 -62.5t59 -78.5t38 -92.5t13.5 -102.5q0 -80 -29.5 -151.5t-85.5 -127.5l-115 115q32 32 49.5 74.5t17.5 89.5q0 48 -18.5 90.5t-50 74t-73.5 50t-90 18.5q-20 0 -36 -3v-312h-163v745h-70l70 117h117h46v-381q49 6 91.5 29t74 58.5t49.5 80.5t18 96
h163q0 -98 -40.5 -183t-111.5 -144z" />
    <glyph glyph-name="L" unicode="L" horiz-adv-x="326" 
d="M420 162v-163h-93v-1q-68 0 -127.5 25.5t-104 70t-70 104t-25.5 127.5v420h-93l70 117h116l-1 -1h71v-253v-283q0 -34 13 -63.5t35.5 -52t52 -35.5t63.5 -13v1h93z" />
    <glyph glyph-name="M" unicode="M" horiz-adv-x="969" 
d="M957 420v-420h-163v408q0 24 -9.5 45.5t-25 37t-37 25t-45.5 9.5t-45.5 -9.5t-37 -25t-25 -37t-9.5 -45.5v-408h-163v408q0 24 -9.5 45.5t-25 37t-37 25t-45.5 9.5t-45.5 -9.5t-37 -25t-25 -37t-9.5 -45.5v-408h-163v583h-82l70 117h12h105h58v-38q55 26 117 26
q59 0 110 -22t89 -60q38 38 88.5 60t109.5 22q56 0 106 -21t87.5 -57t60.5 -85t25 -105h1z" />
    <glyph glyph-name="N" unicode="N" horiz-adv-x="627" 
d="M303 701q63 0 118 -24t96 -65t64.5 -96t23.5 -118v-396h-163v396q0 29 -11 54.5t-29.5 44.5t-44 30t-54.5 11t-54.5 -11t-44.5 -30t-30 -44.5t-11 -54.5v-23v-373h-163v373v23v186h-93l69 117h24h93h70v-35q32 17 67 26t73 9z" />
    <glyph glyph-name="O" unicode="O" horiz-adv-x="700" 
d="M700 350q0 -70 -28.5 -133.5t-76.5 -111.5t-112 -76.5t-134 -28.5q-79 0 -143.5 28.5t-110.5 76.5t-71 111.5t-25 133.5t25 134t71 112t110.5 76.5t143.5 28.5q70 0 134 -28.5t112 -76.5t76.5 -112t28.5 -134zM537 350q0 36 -16 69.5t-42.5 60t-60 42.5t-69.5 16
q-44 0 -78.5 -16t-58.5 -42.5t-37 -60t-13 -69.5q0 -35 13 -69t37 -60t58.5 -42t78.5 -16q36 0 69.5 16t60 42t42.5 60t16 69z" />
    <glyph glyph-name="P" unicode="P" horiz-adv-x="711" 
d="M350 699q78 0 142.5 -25t110.5 -71t71 -110.5t25 -142.5q0 -70 -25 -133.5t-71 -111.5t-110.5 -76.5t-142.5 -28.5q-26 0 -48.5 4t-44 13t-44 22t-48.5 31v-279h-165v791h-92l70 117h22h95h70v-48q26 18 48.5 27.5t44 14t44 5.5t48.5 1zM350 163q44 0 78.5 16t58.5 42.5
t37 60t13 68.5q0 88 -49.5 137.5t-137.5 49.5q-35 0 -68 -13t-59 -37t-42 -59t-16 -78q0 -35 16 -68.5t42 -60t59 -42.5t68 -16z" />
    <glyph glyph-name="Q" unicode="Q" horiz-adv-x="713" 
d="M788 -88l-69 -117h-24h-94h-67v278q-35 -35 -84.5 -53t-101.5 -18q-69 0 -132 28.5t-111 76.5t-76.5 111.5t-28.5 133.5q0 78 28.5 142t76.5 110t111 71t132 25q52 0 101.5 -14.5t84.5 -32.5v47h161v-788h93zM348 166q43 0 77.5 16t58.5 42t37 59.5t13 68.5
q0 86 -49 135.5t-137 49.5q-35 0 -68 -13t-59 -37t-42 -58t-16 -77q0 -35 16 -68.5t42 -59.5t59 -42t68 -16z" />
    <glyph glyph-name="R" unicode="R" horiz-adv-x="488" 
d="M418 700q53 0 102.5 -17.5t84.5 -52.5l-117 -117q-18 18 -35.5 21t-34.5 3q-35 0 -65 -12.5t-51.5 -34.5t-34 -52t-12.5 -65v-373h-164v583h-93l70 117h23h94h70v-47q17 9 38 17.5t43 15t43 10.5t39 4z" />
    <glyph glyph-name="S" unicode="S" horiz-adv-x="535" 
d="M262 537q-21 -2 -35.5 -16.5t-14.5 -35.5q0 -22 15 -37.5t37 -15.5h41q43 -2 80.5 -19.5t65.5 -46.5t44 -67.5t16 -81.5q0 -44 -16 -82t-44 -67t-65.5 -46.5t-80.5 -19.5h-5h-5h-246v163h249q21 1 35.5 16t14.5 36q0 22 -15.5 37t-37.5 15h-37v1q-44 1 -82 18.5t-66 46.5
t-44.5 67.5t-16.5 82.5q0 26 6.5 51t17.5 47h-71l70 117h186h1h5h250v-163h-252v0z" />
    <glyph glyph-name="T" unicode="T" horiz-adv-x="467" 
d="M164 535v-209q0 -36 16 -66t40 -51t52.5 -33t54.5 -12h140v-164h-140q-61 0 -120 28t-105 74t-74 104.5t-28 119.5v418h-91l69 117h118h68v-164h303v-162h-303z" />
    <glyph glyph-name="U" unicode="U" horiz-adv-x="641" 
d="M604 701v-372v-24v-302h-163v23q-35 -17 -70 -20t-70 -3q-61 0 -115.5 24.5t-96 66t-66 96t-24.5 115.5v396h163v-396q0 -26 12 -51t31.5 -44.5t44.5 -31.5t51 -12t51.5 12t45 31.5t31.5 44.5t12 51v24v372h163z" />
    <glyph glyph-name="V" unicode="V" horiz-adv-x="672" 
d="M303 3h-209v582h-94l71 116h184v-465l349 465h187l-488 -698v0z" />
    <glyph glyph-name="W" unicode="W" horiz-adv-x="981" 
d="M958 701v-444q-9 -53 -34 -99.5t-62 -81.5t-84 -55.5t-99 -20.5q-53 0 -102 20.5t-84 71.5q-37 -51 -89.5 -71.5t-121.5 -20.5q-53 0 -100 20.5t-84.5 57.5t-63 88.5t-34.5 112.5v306h-92l70 116h117h70v-422q0 -26 11.5 -47t29 -36.5t38 -24t38.5 -8.5q53 0 84.5 32.5
t31.5 83.5v422h162v-422q0 -26 12 -47t29.5 -36.5t38.5 -24t39 -8.5q51 0 84 32.5t33 83.5v422h162z" />
    <glyph glyph-name="X" unicode="X" horiz-adv-x="609" 
d="M464 477q57 -42 91 -106t34 -140q0 -61 -23 -116t-66 -99l-15 -15l-16 15l-83 82l-16 16l16 15q42 44 42 102q0 28 -10.5 53.5t-28.5 45t-42.5 31.5t-52.5 14q-28 -2 -52 -14t-42 -31.5t-28.5 -45t-10.5 -53.5q0 -58 42 -102l15 -15l-15 -16l-83 -82l-16 -15l-16 15
q-42 44 -65 99t-23 116q0 78 35 142.5t94 106.5q-42 36 -67 87.5t-25 111.5v22h22h90h22v-22q0 -26 10 -49.5t27 -40.5t40.5 -27t49.5 -10t49 10t40.5 27t27.5 40.5t10 49.5v22h22h91h22v-22q0 -62 -26 -114t-70 -88z" />
    <glyph glyph-name="Y" unicode="Y" horiz-adv-x="724" 
d="M701 700v-466q0 -104 -39 -195t-107 -159t-159 -107.5t-194 -39.5v166q77 0 142 31t111 85q-25 -7 -50.5 -11t-53.5 -4q-73 0 -136.5 27.5t-111 74.5t-75 111t-27.5 136q0 52 14 99t40 88h-58l98 164h256v-164q-38 0 -72 -14.5t-59.5 -39.5t-40.5 -59.5t-15 -73.5
q0 -38 15 -72t40.5 -59.5t59.5 -40t72 -14.5q39 0 73 14.5t59.5 40t40 59.5t14.5 72v295v56h163z" />
    <glyph glyph-name="Z" unicode="Z" horiz-adv-x="636" 
d="M293 163h332l-98 -163h-330h-186l314 536h-296l98 164h294h180h6l-314 -537v0z" />
    <glyph glyph-name="a" unicode="a" horiz-adv-x="738" 
d="M700 349v-348h-163v54q-41 -26 -88 -40t-98 -14q-72 0 -136 27.5t-111.5 74.5t-75 111t-27.5 136t27.5 136t75 111.5t111.5 75t136 27.5t136 -27.5t111 -75t74.5 -111.5t27.5 -136v-1zM351 164q38 0 72 14.5t59.5 40t40 59t14.5 72.5t-14.5 73t-40 59.5t-59 40
t-72.5 14.5t-72.5 -14.5t-59 -40t-40 -59.5t-14.5 -73q0 -38 14.5 -72t40 -59.5t59 -40t72.5 -14.5z" />
    <glyph glyph-name="b" unicode="b" horiz-adv-x="708" 
d="M349 698q72 0 135.5 -27t111 -74.5t74.5 -111t27 -135.5t-27 -135.5t-74.5 -111t-111 -75t-135.5 -27.5t-136 27.5t-111 75t-74.5 111t-27.5 135.5v465h163v-171q40 26 87 40t99 14zM349 164q38 0 72 14.5t59.5 40t40 59t14.5 72.5t-14.5 72.5t-40 59t-59.5 40t-72 14.5
q-39 0 -72.5 -14.5t-59 -40t-40 -59t-14.5 -72.5t14.5 -72.5t40 -59t59 -40t72.5 -14.5z" />
    <glyph glyph-name="c" unicode="c" 
d="M694 280q-12 -60 -43 -111.5t-76.5 -89t-102.5 -59t-121 -21.5q-72 0 -136 27.5t-111.5 75t-75 111.5t-27.5 137q0 72 27.5 136t75 111.5t111.5 75t136 27.5q64 0 121 -21.5t102.5 -59t76.5 -88.5t43 -111h-170q-21 51 -67.5 83.5t-105.5 32.5q-39 0 -73 -14.5t-59.5 -40
t-40 -59t-14.5 -72.5t14.5 -73t40 -59.5t59.5 -40t73 -14.5q59 0 105.5 32.5t67.5 84.5h170z" />
    <glyph glyph-name="d" unicode="d" horiz-adv-x="713" 
d="M697 814v-465q0 -72 -27.5 -135.5t-74.5 -110.5t-111 -74.5t-136 -27.5t-135.5 27.5t-110.5 74.5t-74.5 110.5t-27.5 135.5t27.5 136t74.5 111t110.5 74.5t135.5 27.5q52 0 98.5 -14t87.5 -40v170h163zM348 164q39 0 72.5 14.5t59 39.5t40 59t14.5 72q0 39 -14.5 72.5
t-40 59t-59 40t-72.5 14.5q-38 0 -72 -14.5t-59 -40t-39.5 -59t-14.5 -72.5q0 -38 14.5 -72t39.5 -59t59 -39.5t72 -14.5z" />
    <glyph glyph-name="e" unicode="e" 
d="M693 281q-12 -60 -43.5 -111.5t-76.5 -89t-102 -58.5t-121 -21q-73 0 -136.5 27.5t-111 75t-75 111t-27.5 136.5t27.5 136.5t75 111t111 75t136.5 27.5q54 0 103 -15.5t90.5 -43.5t74 -66.5t52.5 -84.5q5 -11 8 -20l-16 -27l-58 -93h-217l86 139q-25 23 -56.5 35.5
t-66.5 12.5q-39 0 -73 -14.5t-59.5 -40t-40 -59.5t-14.5 -73t14.5 -73t40 -59.5t59.5 -40t73 -14.5q59 0 105.5 33t67.5 84h170z" />
    <glyph glyph-name="f" unicode="f" horiz-adv-x="467" 
d="M536 861v-163h-116q-35 0 -68.5 -16t-59.5 -42t-42 -59.5t-16 -68.5v-70h186v-139h-186v-303h-163v303h-70l70 116v93q0 70 28.5 133t76.5 111t111 76.5t133 28.5h116z" />
    <glyph glyph-name="g" unicode="g" horiz-adv-x="741" 
d="M535 698h163v-583q0 -67 -26 -126t-70 -103.5t-103.5 -70t-126.5 -25.5v163q48 0 86.5 25t59.5 65q-38 -20 -80.5 -31.5t-88.5 -11.5q-72 0 -136 27.5t-111 74.5t-74.5 111t-27.5 136q0 68 24 126.5t66 105.5h-67l69 117h257q24 0 47.5 -3.5t44.5 -9.5v-175
q-20 11 -43 18t-49 7q-38 0 -72 -14.5t-59.5 -40t-40.5 -59.5t-15 -72q0 -39 15 -73t40.5 -59.5t59.5 -40t72 -14.5t72 14.5t59.5 40t40 59.5t14.5 73v349z" />
    <glyph glyph-name="h" unicode="h" horiz-adv-x="627" 
d="M303 700q63 0 118 -24t96 -65t65 -96t24 -118v-397h-163v397q0 29 -11 54.5t-30 44.5t-44.5 30t-54.5 11t-54.5 -11t-44.5 -30t-30 -44.5t-11 -54.5v-24v-373h-163v373v24v186v164h-96l70 116h26h163v-198q32 17 67 26t73 9z" />
    <glyph glyph-name="i" unicode="i" horiz-adv-x="258" 
d="M204 0h-163v647h163v-647v0zM204 697h-163v163h163v-163v0z" />
    <glyph glyph-name="j" unicode="j" horiz-adv-x="339" 
d="M267 698h-162v163h162v-163zM105 648v-253v-279q0 -35 -12.5 -65t-34 -51.5t-51.5 -34t-65 -12.5h-23l-93 -163h116q70 0 129.5 25t103 68.5t68 103t24.5 129.5v532h-162z" />
    <glyph glyph-name="k" unicode="k" horiz-adv-x="626" 
d="M407 418q42 -27 76.5 -62.5t59 -78.5t38 -92.5t13.5 -102.5q0 -80 -29.5 -151.5t-85.5 -127.5l-115 115q32 32 49.5 74.5t17.5 89.5q0 48 -18.5 90.5t-50 74t-73.5 50t-90 18.5q-20 0 -36 -3v-312h-163v745h-70l70 117h117h46v-381q49 6 91.5 29t74 58.5t49.5 80.5t18 96
h163q0 -98 -40.5 -183t-111.5 -144z" />
    <glyph glyph-name="l" unicode="l" horiz-adv-x="326" 
d="M420 162v-163h-93v-1q-68 0 -127.5 25.5t-104 70t-70 104t-25.5 127.5v420h-93l70 117h116l-1 -1h71v-253v-283q0 -34 13 -63.5t35.5 -52t52 -35.5t63.5 -13v1h93z" />
    <glyph glyph-name="m" unicode="m" horiz-adv-x="969" 
d="M957 420v-420h-163v408q0 24 -9.5 45.5t-25 37t-37 25t-45.5 9.5t-45.5 -9.5t-37 -25t-25 -37t-9.5 -45.5v-408h-163v408q0 24 -9.5 45.5t-25 37t-37 25t-45.5 9.5t-45.5 -9.5t-37 -25t-25 -37t-9.5 -45.5v-408h-163v583h-82l70 117h12h105h58v-38q55 26 117 26
q59 0 110 -22t89 -60q38 38 88.5 60t109.5 22q56 0 106 -21t87.5 -57t60.5 -85t25 -105h1z" />
    <glyph glyph-name="n" unicode="n" horiz-adv-x="627" 
d="M303 701q63 0 118 -24t96 -65t64.5 -96t23.5 -118v-396h-163v396q0 29 -11 54.5t-29.5 44.5t-44 30t-54.5 11t-54.5 -11t-44.5 -30t-30 -44.5t-11 -54.5v-23v-373h-163v373v23v186h-93l69 117h24h93h70v-35q32 17 67 26t73 9z" />
    <glyph glyph-name="o" unicode="o" horiz-adv-x="700" 
d="M700 350q0 -70 -28.5 -133.5t-76.5 -111.5t-112 -76.5t-134 -28.5q-79 0 -143.5 28.5t-110.5 76.5t-71 111.5t-25 133.5t25 134t71 112t110.5 76.5t143.5 28.5q70 0 134 -28.5t112 -76.5t76.5 -112t28.5 -134zM537 350q0 36 -16 69.5t-42.5 60t-60 42.5t-69.5 16
q-44 0 -78.5 -16t-58.5 -42.5t-37 -60t-13 -69.5q0 -35 13 -69t37 -60t58.5 -42t78.5 -16q36 0 69.5 16t60 42t42.5 60t16 69z" />
    <glyph glyph-name="p" unicode="p" horiz-adv-x="711" 
d="M350 699q78 0 142.5 -25t110.5 -71t71 -110.5t25 -142.5q0 -70 -25 -133.5t-71 -111.5t-110.5 -76.5t-142.5 -28.5q-26 0 -48.5 4t-44 13t-44 22t-48.5 31v-279h-165v791h-92l70 117h22h95h70v-48q26 18 48.5 27.5t44 14t44 5.5t48.5 1zM350 163q44 0 78.5 16t58.5 42.5
t37 60t13 68.5q0 88 -49.5 137.5t-137.5 49.5q-35 0 -68 -13t-59 -37t-42 -59t-16 -78q0 -35 16 -68.5t42 -60t59 -42.5t68 -16z" />
    <glyph glyph-name="q" unicode="q" horiz-adv-x="713" 
d="M788 -88l-69 -117h-24h-94h-67v278q-35 -35 -84.5 -53t-101.5 -18q-69 0 -132 28.5t-111 76.5t-76.5 111.5t-28.5 133.5q0 78 28.5 142t76.5 110t111 71t132 25q52 0 101.5 -14.5t84.5 -32.5v47h161v-788h93zM348 166q43 0 77.5 16t58.5 42t37 59.5t13 68.5
q0 86 -49 135.5t-137 49.5q-35 0 -68 -13t-59 -37t-42 -58t-16 -77q0 -35 16 -68.5t42 -59.5t59 -42t68 -16z" />
    <glyph glyph-name="r" unicode="r" horiz-adv-x="488" 
d="M418 700q53 0 102.5 -17.5t84.5 -52.5l-117 -117q-18 18 -35.5 21t-34.5 3q-35 0 -65 -12.5t-51.5 -34.5t-34 -52t-12.5 -65v-373h-164v583h-93l70 117h23h94h70v-47q17 9 38 17.5t43 15t43 10.5t39 4z" />
    <glyph glyph-name="s" unicode="s" horiz-adv-x="535" 
d="M262 537q-21 -2 -35.5 -16.5t-14.5 -35.5q0 -22 15 -37.5t37 -15.5h41q43 -2 80.5 -19.5t65.5 -46.5t44 -67.5t16 -81.5q0 -44 -16 -82t-44 -67t-65.5 -46.5t-80.5 -19.5h-5h-5h-246v163h249q21 1 35.5 16t14.5 36q0 22 -15.5 37t-37.5 15h-37v1q-44 1 -82 18.5t-66 46.5
t-44.5 67.5t-16.5 82.5q0 26 6.5 51t17.5 47h-71l70 117h186h1h5h250v-163h-252v0z" />
    <glyph glyph-name="t" unicode="t" horiz-adv-x="467" 
d="M164 535v-209q0 -36 16 -66t40 -51t52.5 -33t54.5 -12h140v-164h-140q-61 0 -120 28t-105 74t-74 104.5t-28 119.5v418h-91l69 117h118h68v-164h303v-162h-303z" />
    <glyph glyph-name="u" unicode="u" horiz-adv-x="641" 
d="M604 701v-372v-24v-302h-163v23q-35 -17 -70 -20t-70 -3q-61 0 -115.5 24.5t-96 66t-66 96t-24.5 115.5v396h163v-396q0 -26 12 -51t31.5 -44.5t44.5 -31.5t51 -12t51.5 12t45 31.5t31.5 44.5t12 51v24v372h163z" />
    <glyph glyph-name="v" unicode="v" horiz-adv-x="672" 
d="M303 3h-209v582h-94l71 116h184v-465l349 465h187l-488 -698v0z" />
    <glyph glyph-name="w" unicode="w" horiz-adv-x="981" 
d="M958 701v-444q-9 -53 -34 -99.5t-62 -81.5t-84 -55.5t-99 -20.5q-53 0 -102 20.5t-84 71.5q-37 -51 -89.5 -71.5t-121.5 -20.5q-53 0 -100 20.5t-84.5 57.5t-63 88.5t-34.5 112.5v306h-92l70 116h117h70v-422q0 -26 11.5 -47t29 -36.5t38 -24t38.5 -8.5q53 0 84.5 32.5
t31.5 83.5v422h162v-422q0 -26 12 -47t29.5 -36.5t38.5 -24t39 -8.5q51 0 84 32.5t33 83.5v422h162z" />
    <glyph glyph-name="x" unicode="x" horiz-adv-x="609" 
d="M464 477q57 -42 91 -106t34 -140q0 -61 -23 -116t-66 -99l-15 -15l-16 15l-83 82l-16 16l16 15q42 44 42 102q0 28 -10.5 53.5t-28.5 45t-42.5 31.5t-52.5 14q-28 -2 -52 -14t-42 -31.5t-28.5 -45t-10.5 -53.5q0 -58 42 -102l15 -15l-15 -16l-83 -82l-16 -15l-16 15
q-42 44 -65 99t-23 116q0 78 35 142.5t94 106.5q-42 36 -67 87.5t-25 111.5v22h22h90h22v-22q0 -26 10 -49.5t27 -40.5t40.5 -27t49.5 -10t49 10t40.5 27t27.5 40.5t10 49.5v22h22h91h22v-22q0 -62 -26 -114t-70 -88z" />
    <glyph glyph-name="y" unicode="y" horiz-adv-x="724" 
d="M701 700v-466q0 -104 -39 -195t-107 -159t-159 -107.5t-194 -39.5v166q77 0 142 31t111 85q-25 -7 -50.5 -11t-53.5 -4q-73 0 -136.5 27.5t-111 74.5t-75 111t-27.5 136q0 52 14 99t40 88h-58l98 164h256v-164q-38 0 -72 -14.5t-59.5 -39.5t-40.5 -59.5t-15 -73.5
q0 -38 15 -72t40.5 -59.5t59.5 -40t72 -14.5q39 0 73 14.5t59.5 40t40 59.5t14.5 72v295v56h163z" />
    <glyph glyph-name="z" unicode="z" horiz-adv-x="636" 
d="M293 163h332l-98 -163h-330h-186l314 536h-296l98 164h294h180h6l-314 -537v0z" />
    <glyph glyph-name="j.001" horiz-adv-x="282" 
d="M163 697h-162v163h162v-163zM1 650v-255v-279q0 -35 -12.5 -65t-34 -51.5t-51.5 -34t-65 -12.5h-23l-93 -163h116q70 0 129.5 25t103 68.5t68 103t24.5 129.5v534h-162z" />
  </font>
</defs>
</svg>
