<svg xmlns="http://www.w3.org/2000/svg" width="512" height="512" viewBox="0 0 480 480"><g fill="#04b386"><path d="M240 0H136a8 8 0 0 0-8 8v56H8a8 8 0 0 0-8 8v400a8 8 0 0 0 8 8h232a8 8 0 0 0 8-8V8a8 8 0 0 0-8-8zm-8 416h-88v-16h88zM16 120h112v240H16zm216-32h-88V64h88zM16 376h112v24H16zm128 8V104h88v280zm88-368v32h-88V16zM128 80v24H16V80zM16 416h112v48H16zm128 48v-32h88v32z"/><path d="M479.74 437.98l-96-368a7.99 7.99 0 0 0-3.715-4.898 8 8 0 0 0-6.09-.812l-120 32a8 8 0 0 0-5.68 9.742l96 368a7.97 7.97 0 0 0 3.72 4.894 7.968 7.968 0 0 0 6.086.8l120-32a8 8 0 0 0 5.68-9.727zM278.5 158.54l104.54-27.87 3.762 14.398-104.54 27.914zm112.34 2.05l46.398 177.98-104.5 27.883-46.398-178zm50.473 193.47l8.2 31.395-104.54 27.87-8.16-31.383zM370.28 81.8l8.7 33.398-104.54 27.863-8.703-33.383zm-12.578 380.4l-8.7-33.398 104.54-27.88 8.703 33.383zM104 144H40a8 8 0 0 0-8 8v64a8 8 0 0 0 8 8h64a8 8 0 0 0 8-8v-64a8 8 0 0 0-8-8zm-8 64H48v-48h48z"/></g></svg>